<svg xmlns="http://www.w3.org/2000/svg" width="226.78" height="226.78" viewBox="0 0 226.777 226.777">
  <path fill="#fff" d="M182.98 112.85c-7.3-5.5-17.7-7.7-17.7-7.7s8.8-5.1 12.4-10.2c3.6-5.1 5.4-13 5.7-17.1.3-4.1 1-21.3-12.4-31.18-10.37-7.66-22.24-10.7-38.2-11.7V.28h-21.4v34.3H95.1V.27H73.7v34.3H31.6V56.8H44c3.38 0 9.37.36 11.92 3.22 2.55 2.84 3 4.35 3 9.9v88.53c0 2.1-.4 4.7-2.2 6.4-1.8 1.7-3.6 2.1-7.9 2.1H36l-4.4 25.7h42.1v34.2h21.4v-34.2h16.3v34.2h21.4v-34.77c5.52-.33 10.68-.75 13.7-1.14 6.1-.8 19.88-2.4 32.78-11.4 12.9-9 15.8-23.1 16.1-37.3.3-14.2-5.1-23.9-12.4-29.4zM95.1 58.77s6.8-.6 13.5-.5c6.7.1 12.6.3 21.4 3 8.8 2.7 13.98 9.3 14.2 17.1.2 7.8-3.22 13-9.2 16.3-6 3.3-14.3 5.1-22.1 5.4-7.8.3-17.8 0-17.8 0v-41.3zM143 161.04c-4.9 2.7-14.7 5.1-24.2 5.8-9.5.7-23.7.4-23.7.4v-45.9s13.6-.7 24.2 0 19.5 3.4 23.48 5.4c4 2 11 6.4 11 16.9 0 10.5-5.9 14.7-10.8 17.4z"/>
</svg>
