<svg viewBox="0 0 131 25" xmlns="http://www.w3.org/2000/svg">
<g fill-rule="nonzero">
<path fill="#5CB8EA" d="M29.93 8.22h-.05l-15.75-.87c-.2 0-.38-.1-.47-.27-.1-.16-.08-.36.03-.55L16.96.85c.18-.3.6-.54.95-.54h7.7c.35 0 .76.25.93.56l3.8 6.6c.1.18.12.38.04.53-.1.13-.27.22-.47.22z"/>
<path fill="#456CBD" d="M.58 16.63l15.67.87c.2 0 .4.1.47.27.1.16.08.36-.02.55l-3.2 5.7c-.18.3-.6.55-.95.55H4.87c-.36 0-.77-.25-.95-.56l-3.8-6.6c-.12-.2-.13-.38-.04-.54.1-.15.27-.24.5-.23z"/>
<path fill="#51379B" d="M.56 16.4l25.02.03c.36 0 .76-.23.94-.54l3.83-6.63c.1-.2.12-.4.03-.55-.1-.15-.26-.24-.48-.24L4.88 8.44c-.35 0-.77.24-.95.55L.1 15.6c-.1.2-.1.4-.02.54.1.16.27.25.48.25z"/>
<path fill="#000" d="M70.94 13.78c-2.3-.45-3.6-.6-5.53-.6-3.38 0-5.6 2.3-5.6 5.87C59.8 22.6 62 25 65.3 25c1.36 0 2.52-.35 3.82-1.16v.6c0 .12.1.2.2.2h1.57c.1 0 .2-.08.2-.2V13.97c0-.1-.07-.16-.16-.18zm-5.44 9.46c-2.28 0-3.75-1.63-3.75-4.15 0-2.6 1.44-4.16 3.87-4.16 1.2 0 2.23.08 3.52.28v6.8c-1.32.87-2.38 1.22-3.64 1.22zM92.8 13.2c-1.5 0-2.83.14-4.1.45V7.98c0-.1-.08-.2-.18-.2h-1.58c-.1 0-.2.1-.2.2v16.47c0 .1.1.2.2.2h1.58c.1 0 .18-.1.18-.2v-8.97c1.2-.3 2.37-.44 3.8-.44 1.82 0 2.9 1.16 2.9 3.1v6.3c0 .12.1.2.2.2h1.57c.1 0 .2-.08.2-.2v-6.67c0-2.82-1.75-4.58-4.56-4.58zM111.13 13.78c-2.3-.45-3.6-.6-5.54-.6-3.4 0-5.6 2.3-5.63 5.87 0 3.55 2.22 5.94 5.53 5.94 1.36 0 2.52-.35 3.82-1.16v.6c0 .12.1.2.2.2h1.57c.1 0 .18-.08.18-.2V13.97c0-.1-.06-.16-.15-.18zm-5.45 9.46c-2.28 0-3.75-1.63-3.75-4.15 0-2.6 1.45-4.16 3.87-4.16 1.2 0 2.23.08 3.52.28v6.8c-1.32.87-2.38 1.22-3.64 1.22zM116.6 13.54H115c-.1 0-.17.1-.17.2v10.7c0 .12.08.2.18.2h1.6c.1 0 .18-.08.18-.2v-10.7c0-.1-.08-.2-.2-.2zM115.8 8.5c-.77 0-1.35.6-1.35 1.36 0 .74.6 1.32 1.35 1.32.76 0 1.35-.58 1.35-1.32 0-.77-.58-1.35-1.35-1.35zM58.46 13.4h-.33l-.42-.02c-1.74.02-3.58.2-5.48.5l-.77.16c-.05 0-.1.04-.12.08-.02.05-.03.1 0 .14l.5 1.25v8.97c0 .1.06.17.15.17h1.58c.1 0 .16-.07.16-.17v-9c1.54-.17 2.77-.2 4.13-.2.07 0 .13-.05.16-.1l.6-1.53c.03-.05.02-.1 0-.15-.04-.06-.1-.1-.14-.1zM83.7 22.58c-1.2.3-3.03.6-3.9.6-2.48 0-4.14-1.65-4.14-4.14 0-2.53 1.7-4.17 4.3-4.17.83 0 1.95.15 3.07.42.08 0 .16-.03.2-.1l.43-1.1v-.04l.03-.1c0-.1-.04-.18-.12-.2-1.04-.36-2.5-.6-3.7-.6-3.68 0-6.15 2.36-6.15 5.86 0 3.53 2.42 5.9 6 5.9 1 0 2.7-.26 4.05-.62.07-.02.12-.08.12-.16v-1.4c0-.05-.02-.1-.06-.13-.04-.02-.1-.04-.15-.02zM126.4 13.25c-1.67 0-3.66.17-5.2.45-.25.04-1.23.26-1.28.27-.04 0-.08.04-.1.08-.03.04-.03.1-.02.14l.57 1.43v8.8c0 .1.08.17.17.17h1.57c.1 0 .18-.07.18-.16v-9.1c1.2-.2 2.44-.3 3.8-.3 1.82 0 2.9 1.17 2.9 3.1v6.3c0 .1.08.16.18.16h1.57c.1 0 .16-.07.16-.16V17.8c0-2.8-1.73-4.55-4.5-4.55zM48.56 10.37c.1 0 .2-.08.2-.2v-1.5c0-.1-.1-.2-.2-.2h-11.8c-.06 0-.12.05-.15.1-.03.06-.03.12 0 .18l.8 1.73v13.97c0 .1.08.2.2.2h10.96c.1 0 .2-.1.2-.2v-1.5c0-.1-.1-.2-.2-.2h-9.13v-5.23h6.7c.07 0 .1-.04.14-.08l.02-.04.75-1.57v-.05c0-.1-.06-.16-.15-.17h-7.47v-5.23h9.13z"/>
</g></svg>