<svg xmlns="http://www.w3.org/2000/svg" viewBox="0 0 100 81">
<g fill-rule="nonzero" fill="#FFF">
  <path d="M98.3 26.1h-.2l-51.8-2.9c-.7 0-1.2-.3-1.5-.9-.3-.5-.3-1.2.1-1.8L55.7 1.8c.6-1 2-1.8 3.1-1.8h25.3c1.1 0 2.5.8 3.1 1.8l12.5 21.8c.3.6.4 1.3.1 1.7-.3.5-.9.8-1.5.8z"/>
  <path opacity=".5" d="M1.8 53.8l51.5 2.9c.7 0 1.3.3 1.5.9.3.5.3 1.2-.1 1.8L44.3 78.2c-.6 1-2 1.8-3.1 1.8H15.9c-1.2 0-2.5-.8-3.1-1.8L.3 56.4c-.4-.7-.4-1.3-.1-1.8.3-.5.9-.8 1.6-.8z"/>
  <path opacity=".75" d="M1.8 53.1l82.2.1c1.2 0 2.5-.8 3.1-1.8l12.6-21.9c.3-.7.4-1.3.1-1.8-.3-.5-.9-.8-1.6-.8L16 26.8c-1.2 0-2.5.8-3.1 1.8L.3 50.4c-.3.7-.3 1.3-.1 1.8.3.5.9.8 1.6.9z"/>
</g></svg>
